<?xml version="1.0" encoding="UTF-8"?><svg id="Layer_2" xmlns="http://www.w3.org/2000/svg" viewBox="0 0 285.85 145.52"><defs><style>.cls-1{stroke-linejoin:bevel;stroke-width:3px;}.cls-1,.cls-2{stroke-linecap:round;}.cls-1,.cls-2,.cls-3{fill:none;stroke:#010101;}.cls-4{fill:#010101;stroke-width:0px;}.cls-2,.cls-3{stroke-linejoin:round;stroke-width:6px;}.cls-3{stroke-linecap:square;}</style></defs><g id="Layer_1-2"><polyline class="cls-2" points="3 3 26.14 37.26 50.61 4.33 50.61 75.32"/><rect class="cls-3" x="84.49" y="3" width="46.25" height="72.53"/><polyline class="cls-2" points="157.37 3 197.21 3 197.21 39.26 157.37 39.26 196.6 75.53"/><polyline class="cls-2" points="220.82 75.53 251.82 3 282.85 75.53"/><line class="cls-1" x1="261.41" y1="25.53" x2="223.72" y2="67.35"/><line class="cls-1" x1="122.06" y1="21.66" x2="92.36" y2="56.07"/><path class="cls-4" d="m151.2,122.11c-.54.31-1.31.69-2.23.69-2.39-.23-4.01-1.93-4.01-4.16,0-6.93,13.79-16.49,20.57-18.95.46-.15,1.39-.39,2.16-.39.62,0,1.16.08,1.23.69,0,.85-1.08.92-1.93,1.39-6.39,3.08-17.03,12.87-17.03,19.03,0,.85.85,1.7,1.23,1.7Zm3.12-4.3c-3.02.96-7.2,2.14-10.74,4.51-1.88,1.26-2.4,2.04-2.4,2.6s.86.77,1.83.77c9.23,0,22.11-6.83,31.72-15.38,4.61-4.04,10.86-11.15,10.86-17.5,0-8.75-11.15-11.92-19.8-11.92-13.46,0-26.34,4.9-36.43,13.94-2.5,2.21-4.52,4.81-4.61,8.56,0,3.08,2.6,4.23,2.6,5.29.1.19-.58.39-.67.39-4.23-1.15-7.02-6.92-7.11-9.9.1-3.08,2.79-6.73,6.15-9.81,10.29-9.32,24.22-14.13,38.55-14.13,8.07,0,15.57,1.83,20.09,6.63,3.08,3.17,5,7.5,5,12.78,0,7.69-6.34,16.92-14.61,23.65-9.66,7.73-21.7,13.07-30.47,13.07-3.08,0-6.54-2.6-6.54-6.15.96-5.58,11.16-8.63,17.22-8.63"/><path class="cls-4" d="m181.86,118.64c0-6,8.28-13.4,14.28-15.8.82-.32,1.52-.38,1.9-.38,1.45,0,4.04,3.48,4.3,4.68,0,3.54-7.14,7.27-10.87,7.27-1.45,0-1.96-.32-1.96-.57,0-.38,1.01-.32,1.33-.38,3.67-.82,8.72-5.75,8.72-7.65-3.1.76-7.52,3.67-10.81,7.01-1.9,1.9-4.04,4.99-4.04,7.27,0,.88.57,1.83,1.83,1.83,2.72-.19,7.71-3.67,9.98-5.94.19-.25.44-.32.57-.32.19,0,.25.13.25.38-.25.95-3.41,4.42-6.63,6.7-1.33.95-2.46,1.58-3.54,1.71-2.78,0-5.31-3.41-5.31-5.81Z"/><path class="cls-4" d="m215.79,101.9c1.33,0,2.21,1.52,2.84,2.65l.19.32c.51.38,1.01,1.07,1.01,1.96-.19,2.97-5.12,7.27-8.21,7.27-.06,0-.25-.25-.25-.38,1.01-.57,2.15-1.58,3.16-2.65,1.26-1.26,3.16-3.16,3.41-4.74,0-.38-.32-.51-.82-.51-2.02,0-4.17.7-6.07,1.9-3.48,2.27-5.81,4.87-5.81,9.54,0,1.83.7,3.41.7,5.43,0,.82-.32,1.77-1.33,1.77-3.29,0-7.71-3.92-7.71-7.58,0-.57.25-.82.44-.82.51,0,.44.57.95,1.77.82,1.9,2.53,3.48,4.8,3.79.32,0,.57-.25.57-.76-.63-1.77-1.2-3.79-1.2-6.19,0-5.25,2.78-8.4,7.39-11.06,2.78-1.58,4.99-1.71,5.94-1.71Z"/><path class="cls-4" d="m225.27,104.55c.13-.19.25-.44.25-.57,0-.06-.06-.25-.06-.38s0-.19.13-.19c.44,0,.82.19,1.26.38.88.51,2.02,1.45,2.02,2.65,0,.19-.13.51-.32.76-.44.7-1.45,1.58-2.53,2.84-3.48,3.85-6,6.95-7.84,10.17-.57,1.07-.88,1.9-.88,2.72,0,.25.38.06.51.44-.13.19-.25.19-.44.19-2.34-.32-2.53-1.33-2.59-2.46,0-4.55,10.17-15.92,10.49-16.56Zm3.6-2.46c-.25,0-.32-.06-.32-.25.06-.7,3.92-8.15,5.37-8.15.76.25,2.34,1.39,2.34,2.21-.06,1.39-5.37,4.93-6.89,5.88-.06.06-.32.32-.51.32Z"/><path class="cls-4" d="m235.64,121.11l4.11-8.85c-1.58,1.07-4.61,3.85-7.01,6-3.1,2.72-5.31,6.19-6.45,6.19-1.07,0-1.83-1.39-2.21-2.53-.19-.51-.19-1.07-.19-1.39,0-4.11,3.67-9.23,6.38-11.88,2.78-2.72,8.22-6.32,12.64-6.57.82,0,1.07.44,1.14.57,1.39,1.14,2.34,3.22,2.34,3.22.32.38.44.76.44,1.26,0,.57-.51,2.78-1.39,2.78-.13-.13-.13-.19-.13-.25.06-.32.7-1.01.7-1.9-.13-1.26-1.58-1.58-2.46-1.58-3.79,0-9.04,4.04-9.04,4.11-3.79,3.41-5.5,5.75-6.32,7.52-.82,1.64-.95,2.65-.95,2.84,1.14-1.07,4.74-3.98,7.9-6.45,2.59-1.96,5.18-3.6,5.75-3.6-.06,0,.44-.06,1.58.7.7.51,1.33.82,1.33,1.45,0,.19-.25.7-.38,1.07-.82,2.09-2.78,5.31-3.54,6.89.38,0,.82.06.95.38,0,.51-.57.57-.57.57l-.95.32c-1.52,2.46-2.46,3.92-3.79,5.75-3.1,4.42-8.78,11.56-14.09,11.56-1.9,0-2.84-1.14-2.84-2.72,0-4.17,8.03-10.43,7.9-10.43,3.1-2.59,7.46-4.55,9.16-5.06Zm-.76,1.58c-3.41,1.33-13.97,9.1-14.22,13.97,0,.25.13.44.38.44,1.83,0,5.12-3.16,6.38-4.42,3.1-2.97,5.56-6.82,7.46-9.98Z"/><path class="cls-4" d="m254.78,103.6c.95,0,2.84,1.26,2.84,2.4-.19,1.71-6.26,7.77-7.84,9.92,1.71-1.52,11-9.79,13.59-10.62.32-.06.63-.13.88-.13.95,0,2.53,1.33,2.53,2.4,0,.25,0,.44-1.2,1.71-2.4,2.84-6.51,7.9-6.57,11.06,0,.95.06,2.53,1.45,2.53.06,0,.13.06.13.13,0,.51-.7.7-1.26.7-1.96,0-3.54-2.02-3.54-4.3,0-3.73,2.15-6.76,5.75-11.63-.95.63-2.27,1.64-3.79,2.91-3.54,2.91-7.96,6.89-10.05,9.23-1.77,2.02-2.4,2.97-2.4,3.48,0,.19.06.32.13.44-.06.13-.25.13-.44.13-.88,0-2.46-.76-2.46-2.46,0-1.07.76-2.08.76-2.08,1.9-2.78,4.04-6.13,10.05-14.15-1.9,1.07-3.48,2.02-3.73,2.02-.32,0-.44-.19-.44-.32,0-.7,4.17-2.91,4.68-3.16.32-.13.63-.19.95-.19Z"/><path class="cls-4" d="m280.51,101.9c1.33,0,2.21,1.52,2.84,2.65l.19.32c.51.38,1.01,1.07,1.01,1.96-.19,2.97-5.12,7.27-8.21,7.27-.06,0-.25-.25-.25-.38,1.01-.57,2.15-1.58,3.16-2.65,1.26-1.26,3.16-3.16,3.41-4.74,0-.38-.32-.51-.82-.51-2.02,0-4.17.7-6.07,1.9-3.48,2.27-5.81,4.87-5.81,9.54,0,1.83.7,3.41.7,5.43,0,.82-.32,1.77-1.33,1.77-3.29,0-7.71-3.92-7.71-7.58,0-.57.25-.82.44-.82.51,0,.44.57.95,1.77.82,1.9,2.53,3.48,4.8,3.79.32,0,.57-.25.57-.76-.63-1.77-1.2-3.79-1.2-6.19,0-5.25,2.78-8.4,7.39-11.06,2.78-1.58,4.99-1.71,5.94-1.71Z"/><path class="cls-4" d="m152.35,116.24c11.99-2.4,23.4,4.78,33.72,9.86,10.29,5.33,20.4,10.81,31.43,13.55,16.49,4.49,34.4,2.79,49.61-5.12,5.17-2.56,9.92-5.82,14.68-9.1,0,0,.59.81.59.81-4.48,3.66-9.17,7.21-14.28,10.13-21.21,12.58-46.4,11.4-68.32,1.25-10.59-4.7-20.52-10.97-30.97-15.69-5.16-2.23-10.59-3.95-16.02-3.27,0,0-.44-2.41-.44-2.41h0Z"/></g></svg>