<?xml version="1.0" encoding="UTF-8"?><svg id="Layer_2" xmlns="http://www.w3.org/2000/svg" viewBox="0 0 193.54 88.21"><defs><style>.cls-1,.cls-2,.cls-3,.cls-4,.cls-5{fill:none;stroke:#010101;stroke-linecap:round;}.cls-1,.cls-3{stroke-width:2px;}.cls-1,.cls-5{stroke-linejoin:bevel;}.cls-2{stroke-width:3px;}.cls-2,.cls-3,.cls-4{stroke-linejoin:round;}.cls-6{fill:#010101;stroke-width:0px;}.cls-4,.cls-5{stroke-width:4px;}</style></defs><g id="Layer_1-2"><polyline class="cls-2" points="72.12 5.1 82.04 19.78 92.53 5.67 92.53 36.09"/><rect class="cls-2" x="107.05" y="5.1" width="19.82" height="31.08"/><polyline class="cls-2" points="138.27 5.1 155.35 5.1 155.35 20.64 138.27 20.64 155.08 36.18"/><polyline class="cls-2" points="165.46 36.18 178.75 5.1 192.04 36.18"/><line class="cls-3" x1="182.86" y1="14.75" x2="166.7" y2="32.68"/><line class="cls-1" x1="123.14" y1="13.1" x2="110.42" y2="27.84"/><path class="cls-6" d="m91.76,72.62c-.34.2-.84.44-1.43.44-1.53-.15-2.56-1.23-2.56-2.66,0-4.44,8.82-10.55,13.16-12.13.3-.1.89-.25,1.38-.25.39,0,.74.05.79.44,0,.54-.69.59-1.23.89-4.09,1.97-10.89,8.23-10.89,12.18,0,.54.54,1.08.79,1.08Zm1.99-2.75c-1.94.62-4.61,1.37-6.87,2.89-1.2.81-1.54,1.3-1.54,1.66s.55.49,1.17.49c5.9,0,14.15-4.37,20.3-9.84,2.95-2.58,6.95-7.13,6.95-11.19,0-5.6-7.13-7.63-12.67-7.63-8.61,0-16.85,3.14-23.31,8.92-1.6,1.41-2.89,3.08-2.95,5.47,0,1.97,1.66,2.71,1.66,3.38.06.12-.37.25-.43.25-2.71-.74-4.49-4.43-4.55-6.34.06-1.97,1.78-4.31,3.94-6.27,6.58-5.97,15.5-9.04,24.66-9.04,5.17,0,9.96,1.17,12.85,4.24,1.97,2.03,3.2,4.8,3.2,8.18,0,4.92-4.06,10.82-9.35,15.13-6.18,4.94-13.88,8.36-19.5,8.36-1.97,0-4.18-1.66-4.18-3.94.61-3.57,7.14-5.52,11.02-5.52"/><path class="cls-6" d="m111.38,70.4c0-3.84,5.3-8.57,9.14-10.11.53-.2.97-.24,1.21-.24.93,0,2.59,2.22,2.75,2.99,0,2.26-4.57,4.65-6.95,4.65-.93,0-1.25-.2-1.25-.36,0-.24.65-.2.85-.24,2.35-.53,5.58-3.68,5.58-4.89-1.98.49-4.81,2.35-6.91,4.49-1.21,1.21-2.59,3.19-2.59,4.65,0,.57.36,1.17,1.17,1.17,1.74-.12,4.93-2.35,6.39-3.8.12-.16.28-.2.36-.2.12,0,.16.08.16.24-.16.61-2.18,2.83-4.25,4.29-.85.61-1.58,1.01-2.26,1.09-1.78,0-3.4-2.18-3.4-3.72Z"/><path class="cls-6" d="m133.09,59.69c.85,0,1.42.97,1.82,1.7l.12.2c.32.24.65.69.65,1.25-.12,1.9-3.27,4.65-5.26,4.65-.04,0-.16-.16-.16-.24.65-.36,1.37-1.01,2.02-1.7.81-.81,2.02-2.02,2.18-3.03,0-.24-.2-.32-.53-.32-1.29,0-2.67.44-3.88,1.21-2.22,1.46-3.72,3.11-3.72,6.11,0,1.17.44,2.18.44,3.48,0,.53-.2,1.13-.85,1.13-2.1,0-4.93-2.51-4.93-4.85,0-.36.16-.53.28-.53.32,0,.28.36.61,1.13.53,1.21,1.62,2.22,3.07,2.43.2,0,.36-.16.36-.49-.4-1.13-.77-2.43-.77-3.96,0-3.36,1.78-5.38,4.73-7.08,1.78-1.01,3.19-1.09,3.8-1.09Z"/><path class="cls-6" d="m139.16,61.39c.08-.12.16-.28.16-.36,0-.04-.04-.16-.04-.24s0-.12.08-.12c.28,0,.53.12.81.24.57.32,1.29.93,1.29,1.7,0,.12-.08.32-.2.49-.28.44-.93,1.01-1.62,1.82-2.22,2.47-3.84,4.45-5.01,6.51-.36.69-.57,1.21-.57,1.74,0,.16.24.04.32.28-.08.12-.16.12-.28.12-1.5-.2-1.62-.85-1.66-1.58,0-2.91,6.51-10.19,6.71-10.59Zm2.3-1.58c-.16,0-.2-.04-.2-.16.04-.44,2.51-5.22,3.44-5.22.49.16,1.5.89,1.5,1.41-.04.89-3.44,3.15-4.41,3.76-.04.04-.2.2-.32.2Z"/><path class="cls-6" d="m145.79,71.98l2.63-5.66c-1.01.69-2.95,2.47-4.49,3.84-1.98,1.74-3.4,3.96-4.12,3.96-.69,0-1.17-.89-1.42-1.62-.12-.32-.12-.69-.12-.89,0-2.63,2.35-5.9,4.08-7.6,1.78-1.74,5.26-4.04,8.09-4.2.53,0,.69.28.73.36.89.73,1.5,2.06,1.5,2.06.2.24.28.48.28.81,0,.36-.32,1.78-.89,1.78-.08-.08-.08-.12-.08-.16.04-.2.44-.65.44-1.21-.08-.81-1.01-1.01-1.58-1.01-2.43,0-5.78,2.59-5.78,2.63-2.43,2.18-3.52,3.68-4.04,4.81-.53,1.05-.61,1.7-.61,1.82.73-.69,3.03-2.55,5.05-4.12,1.66-1.25,3.32-2.3,3.68-2.3-.04,0,.28-.04,1.01.44.44.32.85.53.85.93,0,.12-.16.44-.24.69-.53,1.33-1.78,3.4-2.26,4.41.24,0,.53.04.61.24,0,.32-.36.36-.36.36l-.61.2c-.97,1.58-1.58,2.51-2.43,3.68-1.98,2.83-5.62,7.4-9.02,7.4-1.21,0-1.82-.73-1.82-1.74,0-2.67,5.13-6.67,5.05-6.67,1.98-1.66,4.77-2.91,5.86-3.23Zm-.49,1.01c-2.18.85-8.94,5.82-9.1,8.94,0,.16.08.28.24.28,1.17,0,3.28-2.02,4.08-2.83,1.98-1.9,3.56-4.37,4.77-6.39Z"/><path class="cls-6" d="m158.04,60.78c.61,0,1.82.81,1.82,1.54-.12,1.09-4,4.97-5.01,6.35,1.09-.97,7.04-6.27,8.69-6.79.2-.04.4-.08.57-.08.61,0,1.62.85,1.62,1.54,0,.16,0,.28-.77,1.09-1.54,1.82-4.16,5.05-4.2,7.08,0,.61.04,1.62.93,1.62.04,0,.08.04.08.08,0,.32-.44.44-.81.44-1.25,0-2.26-1.29-2.26-2.75,0-2.39,1.37-4.33,3.68-7.44-.61.4-1.46,1.05-2.43,1.86-2.26,1.86-5.09,4.41-6.43,5.9-1.13,1.29-1.54,1.9-1.54,2.22,0,.12.04.2.08.28-.04.08-.16.08-.28.08-.57,0-1.58-.49-1.58-1.58,0-.69.49-1.33.49-1.33,1.21-1.78,2.59-3.92,6.43-9.06-1.21.69-2.22,1.29-2.39,1.29-.2,0-.28-.12-.28-.2,0-.44,2.67-1.86,2.99-2.02.2-.08.4-.12.61-.12Z"/><path class="cls-6" d="m174.5,59.69c.85,0,1.42.97,1.82,1.7l.12.2c.32.24.65.69.65,1.25-.12,1.9-3.27,4.65-5.26,4.65-.04,0-.16-.16-.16-.24.65-.36,1.37-1.01,2.02-1.7.81-.81,2.02-2.02,2.18-3.03,0-.24-.2-.32-.53-.32-1.29,0-2.67.44-3.88,1.21-2.22,1.46-3.72,3.11-3.72,6.11,0,1.17.44,2.18.44,3.48,0,.53-.2,1.13-.85,1.13-2.1,0-4.93-2.51-4.93-4.85,0-.36.16-.53.28-.53.32,0,.28.36.61,1.13.53,1.21,1.62,2.22,3.07,2.43.2,0,.36-.16.36-.49-.4-1.13-.77-2.43-.77-3.96,0-3.36,1.78-5.38,4.73-7.08,1.78-1.01,3.19-1.09,3.8-1.09Z"/><path class="cls-6" d="m92.42,68.43c18.84-4.05,38.84,28.06,73.33,11.81,3.3-1.56,6.35-3.59,9.47-5.63,0,0,.59.81.59.81-2.81,2.4-5.8,4.73-9.06,6.67-13.34,8.31-30.26,7.65-44.2,1.14-6.78-2.99-13.15-7.02-19.76-10.11-3.24-1.45-6.57-2.57-9.93-2.26,0,0-.44-2.41-.44-2.41h0Z"/><line class="cls-5" x1="27.13" y1="2" x2="69.78" y2="51.41"/><line class="cls-5" x1="65.82" y1="29.9" x2="23.17" y2="79.31"/><polyline class="cls-4" points="2 16.57 16.06 37.38 30.92 17.38 30.92 60.5"/></g></svg>