<?xml version="1.0" encoding="UTF-8"?><svg id="Layer_2" xmlns="http://www.w3.org/2000/svg" viewBox="0 0 162.84 113.34"><defs><style>.cls-1{fill:#010101;stroke-width:0px;}.cls-2{fill:none;stroke:#010101;stroke-linecap:round;stroke-linejoin:round;stroke-width:6px;}</style></defs><g id="Layer_1-2"><path class="cls-1" d="m31.65,89.83c-.54.31-1.31.69-2.23.69-2.39-.23-4.01-1.93-4.01-4.16,0-6.93,13.79-16.49,20.57-18.95.46-.15,1.39-.39,2.16-.39.62,0,1.16.08,1.23.69,0,.85-1.08.92-1.93,1.39-6.39,3.08-17.03,12.87-17.03,19.03,0,.85.85,1.7,1.23,1.7Zm3.12-4.3c-3.02.96-7.2,2.14-10.74,4.51-1.88,1.26-2.4,2.04-2.4,2.6s.86.77,1.83.77c9.23,0,22.11-6.83,31.72-15.38,4.61-4.04,10.86-11.15,10.86-17.5,0-8.75-11.15-11.92-19.8-11.92-13.46,0-26.34,4.9-36.43,13.94-2.5,2.21-4.52,4.81-4.61,8.56,0,3.08,2.6,4.23,2.6,5.29.1.19-.58.39-.67.39-4.23-1.15-7.02-6.92-7.11-9.9.1-3.08,2.79-6.73,6.15-9.81,10.29-9.32,24.22-14.13,38.55-14.13,8.07,0,15.57,1.83,20.09,6.63,3.08,3.17,5,7.5,5,12.78,0,7.69-6.34,16.92-14.61,23.65-9.66,7.73-21.7,13.07-30.47,13.07-3.08,0-6.54-2.6-6.54-6.15.96-5.58,11.16-8.63,17.22-8.63"/><path class="cls-1" d="m32.88,84.39c27.61-6.23,61.01,44.06,114.66,17.79,5.16-2.57,9.94-5.77,14.71-9.04,0,0,.59.81.59.81-4.47,3.66-9.13,7.28-14.25,10.18-15.36,9.14-34.32,11.43-51.59,7.04-11.49-2.72-22.11-8.18-32.36-13.8-5.1-2.76-10.11-5.61-15.28-7.95-5.15-2.29-10.6-4.1-16.19-3.5l-.28-1.53h0Z"/><polyline class="cls-2" points="37.39 3 60.53 37.26 85 4.33 85 75.32"/></g></svg>